<svg xmlns="http://www.w3.org/2000/svg" viewBox="0 0 640 520" fill="none" aria-label="Outline illustration of an iced coffee drink">
  <style>path,circle,ellipse,rect,line{stroke:#A3844A;stroke-width:7;stroke-linecap:round;stroke-linejoin:round}.soft{stroke:#c9a45f}.draw{stroke-dasharray:900;stroke-dashoffset:900;animation:draw 1.1s ease forwards}.d2{animation-delay:.15s}.d3{animation-delay:.3s}.d4{animation-delay:.45s}@keyframes draw{to{stroke-dashoffset:0}}.float{animation:float 2.8s ease-in-out infinite}@keyframes float{50%{transform:translateY(-10px)}}@media(prefers-reduced-motion:reduce){*{animation:none!important;stroke-dashoffset:0}}</style>
  <circle class="soft draw" cx="320" cy="260" r="218" opacity=".45"/><circle class="soft draw d2" cx="320" cy="260" r="175" opacity=".28"/>
  <g class="float"><path class="draw" d="M238 154h164l-20 254H258l-20-254Z"/><path class="draw d2" d="M231 154h178l-17-26H248l-17 26Z"/><path class="draw d3" d="m348 79 25 75"/><path class="draw d2" d="M266 210h108M263 270h114M269 330h102"/><rect class="soft draw d4" x="284" y="218" width="50" height="46" rx="8" transform="rotate(12 284 218)"/><rect class="soft draw d4" x="320" y="284" width="50" height="46" rx="8" transform="rotate(12 320 284)"/></g>
  <path class="soft draw d3" d="M208 130c-28-26-54-17-64 7M430 128c27-25 54-16 64 8M203 368c-38 7-55 28-48 52M438 368c35 9 50 30 43 52"/><ellipse class="soft draw d4" cx="181" cy="198" rx="12" ry="18" transform="rotate(-35 181 198)"/><ellipse class="soft draw d4" cx="462" cy="221" rx="12" ry="18" transform="rotate(35 462 221)"/><path class="draw d3" d="M303 108c-13-19-7-38 5-49M330 109c-11-19-5-38 7-50M357 109c-11-19-5-38 7-50"/>
</svg>
